<svg width="150" height="50" viewBox="0 0 150 50" fill="none" xmlns="http://www.w3.org/2000/svg">
<path d="M134.059 32.8573V16.6965H137.36V22.768H137.449C137.917 21.7858 138.876 20.5805 140.905 20.5805C143.581 20.5805 145.833 22.6564 145.833 26.8082C145.833 30.8484 143.67 33.0582 140.905 33.0582C138.921 33.0582 137.917 31.9198 137.449 30.9153H137.315V32.8573H134.059ZM137.293 26.7858C137.293 28.9733 138.229 30.4242 139.857 30.4242C141.552 30.4242 142.444 28.9287 142.444 26.7858C142.444 24.6653 141.552 23.2144 139.857 23.2144C138.207 23.2144 137.293 24.5983 137.293 26.7858Z" fill="#BBBFCB"/>
<path d="M128.127 27.7009V20.7366H131.427V32.8571H128.261V30.6696H128.127C127.57 32.0759 126.276 33.0134 124.448 33.0134C122.017 33.0134 120.367 31.2946 120.367 28.4598V20.7366H123.667V27.8794C123.667 29.308 124.492 30.2232 125.786 30.2232C126.99 30.2232 128.127 29.3527 128.127 27.7009Z" fill="#BBBFCB"/>
<path d="M104 32.8573V16.6966H107.345V23.393H114.347V16.6966H117.714V32.8573H114.347V26.1609H107.345V32.8573H104Z" fill="#BBBFCB"/>
<path d="M44.3717 36.9406C44.4087 37.0198 44.4477 37.0984 44.4885 37.1763C45.217 38.4845 46.4699 39.4991 47.985 39.9529L79.7449 49.7244C81.2892 50.1783 82.9209 50.0715 84.3778 49.4041C85.8347 48.7366 86.9128 47.5886 87.4081 46.2003L90.77 36.9406H86.6441L83.6856 45.0893L83.6825 45.0981C83.5115 45.5773 83.1432 45.9766 82.6172 46.2176C82.097 46.4559 81.5377 46.4983 80.9678 46.3355L50.432 36.9406H44.3717Z" fill="#235FD2"/>
<path d="M50.5475 15.3422H54.673L57.5678 7.3609L57.574 7.34321C57.7383 6.87387 58.0836 6.49411 58.6326 6.24259L56.872 3.05609C55.4151 3.72354 54.337 4.84486 53.8417 6.25987L50.5475 15.3422Z" fill="#235FD2"/>
<path d="M90.1322 15.3422H96.7585C96.0655 14.0577 94.8354 13.0181 93.2356 12.5339L61.5049 2.73571C59.9606 2.25515 58.3289 2.36194 56.872 3.02939L58.6326 6.21589C59.1577 5.97534 59.6987 5.94329 60.2381 6.11114L90.1322 15.3422Z" fill="#235FD2"/>
<path d="M93.4733 21.7033C93.3453 20.4865 92.3643 19.7606 90.8074 19.7606C89.1865 19.7606 88.2908 20.5078 88.2694 21.5325C88.2481 22.6427 89.4211 23.155 90.7434 23.4539L92.1297 23.7955C94.7742 24.3932 96.7577 25.7382 96.7577 28.3214C96.7577 31.1607 94.5396 32.954 90.786 32.954C87.0538 32.954 84.6651 31.2247 84.5798 27.9157H87.6936C87.8002 29.4742 89.0372 30.2641 90.7434 30.2641C92.4282 30.2641 93.5159 29.4742 93.5159 28.3214C93.5159 27.2753 92.5562 26.7843 90.8714 26.3573L89.1865 25.9517C86.5846 25.3112 84.9851 24.009 84.9851 21.746C84.9851 18.928 87.459 17.0707 90.8287 17.0707C94.241 17.0707 96.5017 18.9707 96.5444 21.7033H93.4733Z" fill="#235FD2"/>
<path d="M72.2943 29.495C72.2943 26.9118 74.3844 26.0579 76.6024 25.9298C77.4342 25.8764 78.991 25.8017 79.4816 25.7804V24.841C79.4602 23.8804 78.7991 23.3039 77.6261 23.3039C76.5597 23.3039 75.8773 23.795 75.7067 24.5849H72.6995C72.8915 22.5781 74.6403 20.9983 77.7114 20.9983C80.228 20.9983 82.6167 22.1298 82.6167 24.9264V32.74H79.6309V31.1388H79.5456C78.9697 32.2063 77.882 32.9535 76.1545 32.9535C73.9365 32.9535 72.2943 31.8006 72.2943 29.495ZM75.3228 29.4096C75.3228 30.3062 76.0479 30.7759 77.0503 30.7759C78.4792 30.7759 79.5029 29.8152 79.4816 28.5984V27.7444C79.0017 27.7658 77.6581 27.8405 77.1143 27.8939C76.0266 28.0006 75.3228 28.513 75.3228 29.4096Z" fill="#235FD2"/>
<path d="M60.119 29.495C60.119 26.9118 62.2091 26.0579 64.4271 25.9298C65.2589 25.8764 66.8158 25.8017 67.3063 25.7804V24.841C67.285 23.8804 66.6238 23.3039 65.4508 23.3039C64.3845 23.3039 63.702 23.795 63.5314 24.5849H60.5242C60.7162 22.5781 62.465 20.9983 65.5361 20.9983C68.0527 20.9983 70.4414 22.1298 70.4414 24.9264V32.74H67.4556V31.1388H67.3703C66.7944 32.2063 65.7067 32.9535 63.9792 32.9535C61.7612 32.9535 60.119 31.8006 60.119 29.495ZM63.1475 29.4096C63.1475 30.3062 63.8726 30.7759 64.875 30.7759C66.3039 30.7759 67.3276 29.8152 67.3063 28.5984V27.7444C66.8264 27.7658 65.4828 27.8405 64.939 27.8939C63.8513 28.0006 63.1475 28.513 63.1475 29.4096Z" fill="#235FD2"/>
<path d="M46.8313 32.7397V17.2834H52.9735C56.3859 17.2834 58.0921 18.9272 58.0921 21.2542C58.0921 23.0688 56.9191 24.2003 55.3195 24.5632V24.7127C57.0683 24.7981 58.7105 26.1857 58.7105 28.47C58.7105 30.9251 56.8764 32.7397 53.3787 32.7397H46.8313ZM52.7389 30.0925C54.5944 30.0925 55.3835 29.324 55.3835 28.1711C55.3835 26.8689 54.4025 25.9509 52.8242 25.9509H50.0304V30.0925H52.7389ZM52.5043 23.752C53.8479 23.752 54.8503 23.0048 54.8503 21.7666C54.8503 20.6565 54.0399 19.8879 52.5683 19.8879H50.0304V23.752H52.5043Z" fill="#235FD2"/>
<path d="M23.8872 32.742V17.2857H27.0863V24.1386H27.2996L32.9086 17.2857H36.7688L31.0105 24.2026L36.8328 32.742H32.9939L28.7072 26.3588L27.0863 28.3229V32.742H23.8872Z" fill="#4393F0"/>
<path d="M9.98169 32.742V17.2857H16.1239C19.5363 17.2857 21.2424 18.9295 21.2424 21.2565C21.2424 23.0711 20.0694 24.2026 18.4699 24.5655V24.715C20.2187 24.8004 21.8609 26.188 21.8609 28.4723C21.8609 30.9274 20.0268 32.742 16.5291 32.742H9.98169ZM15.8893 30.0948C17.7448 30.0948 18.5339 29.3262 18.5339 28.1734C18.5339 26.8712 17.5528 25.9532 15.9746 25.9532H13.1808V30.0948H15.8893ZM15.6547 23.7543C16.9983 23.7543 18.0007 23.0071 18.0007 21.7689C18.0007 20.6588 17.1903 19.8902 15.7187 19.8902H13.1808V23.7543H15.6547Z" fill="#4393F0"/>
<path d="M7.37986 17.2857V32.742H4.18079V17.2857H7.37986Z" fill="#4393F0"/>
<path d="M44.8771 0V10.7217H43.6212V0H44.8771ZM42.697 0.201625V10.1998H41.4529V4.80341H39.9126V3.73599H41.4529V0.201625H42.697ZM38.9648 2.92949C38.9648 4.74411 39.6164 6.55873 41.1449 7.43639L40.3629 8.40893C39.3735 7.81592 38.716 6.79594 38.3487 5.57433C37.9695 6.89675 37.2882 8.02347 36.2752 8.658L35.4695 7.6736C37.0216 6.73664 37.697 4.79155 37.697 2.92949V2.21787H35.8368V1.15045H40.6946V2.21787H38.9648V2.92949Z" fill="#B1B5C3"/>
<path d="M34.1424 0V5.43201H32.8272V4.49504H30.2443V3.48692H32.8272V2.43136H30.3864C29.7111 4.06807 28.1471 5.1355 25.7774 5.66921L25.3153 4.58993C27.8331 4.06807 29.089 2.95914 29.2727 1.52998H25.9077V0.462551H30.7419C30.7419 0.800569 30.7123 1.1208 30.6708 1.42323H32.8272V0H34.1424ZM34.1424 5.84712V8.66986H28.4196V9.55938H34.4268V10.6149H27.1044V7.68546H32.8272V6.89082H27.0926V5.84712H34.1424Z" fill="#B1B5C3"/>
<path d="M23.6587 0V7.92266H22.3435V5.12364H20.8269V4.03249H22.3435V3.01251H20.8269V1.94509H22.3435V0H23.6587ZM20.6729 0.806499V1.86206H19.725V5.27782C20.1279 5.2541 20.5189 5.22445 20.898 5.18294L20.9573 6.14362C18.9312 6.47571 16.5496 6.51129 14.8435 6.51129L14.7013 5.42015L15.9098 5.40829V1.86206H14.9738V0.806499H20.6729ZM23.9312 9.44078V10.5082H16.6207V7.30593H17.9478V9.44078H23.9312ZM17.1895 5.39643L18.4572 5.34898V1.86206H17.1895V5.39643Z" fill="#B1B5C3"/>
<path d="M12.6505 0V3.08367H14.1434V4.18668H12.6505V7.7329H11.3116V0H12.6505ZM9.73576 0.818359C9.73576 3.66483 7.8874 5.69293 4.71202 6.61803L4.16699 5.57433C6.61369 4.86864 8.07105 3.53436 8.3021 1.89764H4.61723V0.818359H9.73576ZM13.0533 9.44078V10.5082H5.76653V6.93826H7.1054V9.44078H13.0533Z" fill="#B1B5C3"/>
</svg>
